<?xml version="1.0" encoding="utf-8"?>
<!-- Generator: Adobe Illustrator 26.0.1, SVG Export Plug-In . SVG Version: 6.00 Build 0)  -->
<svg version="1.1" id="Layer_1" xmlns="http://www.w3.org/2000/svg" xmlns:xlink="http://www.w3.org/1999/xlink" x="0px" y="0px"
	 viewBox="0 0 491.67 91.34" style="enable-background:new 0 0 491.67 91.34;" xml:space="preserve">
<style type="text/css">
	.st0{clip-path:url(#SVGID_00000166668881166975781070000004995626861779053758_);}
	.st1{clip-path:url(#SVGID_00000146458135175246795080000009487170791903657125_);}
	.st2{fill:#FFFFFF;}
	.st3{clip-path:url(#SVGID_00000027587010398531194860000002222808603059904683_);}
	.st4{clip-path:url(#SVGID_00000102509972427231672820000011686642048588957879_);}
	.st5{clip-path:url(#SVGID_00000175301815506869670960000016291269020968540315_);}
	.st6{clip-path:url(#SVGID_00000001654821381617783330000010564361242581798292_);}
</style>
<g>
	<path d="M30.77,57.68c-3.99,0-7.63-0.8-10.9-2.4c-3.27-1.59-6.08-3.71-8.42-6.35c-2.35-2.64-4.15-5.67-5.43-9.07
		c-1.27-3.4-1.91-6.88-1.91-10.43c0-3.72,0.68-7.28,2.03-10.67c1.36-3.4,3.24-6.41,5.63-9.02c2.4-2.62,5.23-4.69,8.51-6.24
		c3.28-1.54,6.83-2.31,10.66-2.31c4,0,7.61,0.82,10.86,2.47c3.25,1.65,6.04,3.81,8.39,6.47c2.34,2.67,4.15,5.69,5.43,9.06
		c1.27,3.37,1.92,6.82,1.92,10.32c0,3.72-0.68,7.27-2.04,10.67c-1.36,3.4-3.22,6.4-5.59,8.98c-2.37,2.59-5.19,4.66-8.46,6.2
		C38.16,56.9,34.6,57.68,30.77,57.68 M11.37,29.43c0,2.82,0.46,5.56,1.4,8.2c0.93,2.64,2.25,4.98,3.96,7.02
		c1.7,2.04,3.75,3.66,6.15,4.87c2.4,1.2,5.06,1.8,7.99,1.8c3.03,0,5.75-0.64,8.14-1.92c2.4-1.28,4.43-2.95,6.11-5.02
		c1.68-2.06,2.96-4.4,3.83-7.02c0.88-2.62,1.32-5.26,1.32-7.92c0-2.83-0.47-5.56-1.4-8.21c-0.93-2.64-2.26-4.97-3.99-6.98
		c-1.73-2.01-3.78-3.62-6.15-4.82c-2.37-1.2-4.99-1.81-7.87-1.81c-3.03,0-5.75,0.63-8.14,1.89c-2.4,1.25-4.43,2.9-6.11,4.94
		c-1.68,2.04-2.97,4.37-3.87,6.98C11.82,24.04,11.37,26.71,11.37,29.43"/>
	<path d="M102.09,57.28h-7.03V34.37c0-4.39-0.68-7.59-2.04-9.57c-1.36-1.99-3.42-2.98-6.18-2.98c-1.44,0-2.88,0.27-4.31,0.82
		c-1.44,0.55-2.8,1.29-4.08,2.24c-1.28,0.94-2.4,2.07-3.35,3.38c-0.96,1.31-1.68,2.74-2.16,4.31v24.72h-7.03V16.32h6.39v8.79
		c1.65-2.88,4.03-5.18,7.15-6.91c3.12-1.73,6.51-2.59,10.18-2.59c2.4,0,4.39,0.43,5.99,1.3c1.6,0.86,2.88,2.06,3.84,3.61
		c0.96,1.54,1.63,3.36,2.03,5.45c0.4,2.09,0.6,4.37,0.6,6.83V57.28z"/>
	<path d="M131.31,58.07c-3.14,0-6.02-0.56-8.62-1.69c-2.61-1.12-4.85-2.65-6.71-4.59c-1.86-1.94-3.31-4.2-4.35-6.79
		c-1.04-2.59-1.55-5.32-1.55-8.2s0.52-5.6,1.55-8.16c1.04-2.56,2.5-4.81,4.39-6.75c1.89-1.94,4.14-3.47,6.75-4.59
		c2.61-1.13,5.48-1.69,8.63-1.69c3.14,0,6,0.58,8.58,1.73c2.58,1.15,4.78,2.68,6.59,4.59c1.81,1.91,3.2,4.13,4.19,6.67
		c0.99,2.54,1.48,5.17,1.48,7.88c0,0.58-0.01,1.1-0.04,1.57c-0.03,0.47-0.07,0.84-0.12,1.1H117.5c0.16,2.04,0.64,3.9,1.44,5.57
		c0.8,1.68,1.83,3.11,3.11,4.32c1.28,1.2,2.73,2.15,4.35,2.82c1.62,0.68,3.34,1.02,5.15,1.02c1.28,0,2.53-0.17,3.75-0.51
		c1.22-0.34,2.37-0.8,3.43-1.37c1.06-0.58,2.01-1.28,2.84-2.12c0.82-0.84,1.45-1.78,1.88-2.82l6.07,1.65
		c-0.69,1.51-1.64,2.9-2.84,4.16c-1.2,1.26-2.58,2.34-4.15,3.26c-1.57,0.92-3.31,1.63-5.23,2.16
		C135.38,57.81,133.39,58.07,131.31,58.07 M145.61,34.06c-0.16-1.94-0.66-3.73-1.48-5.38c-0.83-1.65-1.86-3.05-3.11-4.2
		c-1.25-1.15-2.7-2.05-4.35-2.71c-1.65-0.65-3.41-0.98-5.27-0.98c-1.86,0-3.62,0.33-5.27,0.98c-1.66,0.65-3.1,1.57-4.35,2.75
		c-1.25,1.17-2.26,2.57-3.03,4.19c-0.77,1.62-1.24,3.41-1.4,5.34H145.61z"/>
	<path d="M214.68,13.26c-0.64-0.73-1.49-1.44-2.55-2.12c-1.06-0.68-2.27-1.29-3.59-1.84c-1.33-0.55-2.78-0.99-4.35-1.33
		c-1.58-0.34-3.21-0.51-4.92-0.51c-4.42,0-7.65,0.81-9.7,2.43c-2.05,1.62-3.07,3.84-3.07,6.67c0,1.52,0.29,2.77,0.88,3.77
		c0.58,0.99,1.5,1.84,2.75,2.55c1.25,0.71,2.81,1.32,4.67,1.84c1.86,0.52,4.07,1.07,6.63,1.65c2.93,0.63,5.58,1.35,7.95,2.16
		c2.37,0.81,4.39,1.82,6.07,3.02c1.68,1.2,2.96,2.67,3.83,4.39c0.88,1.73,1.32,3.85,1.32,6.36c0,2.67-0.53,4.98-1.6,6.95
		c-1.07,1.96-2.52,3.58-4.35,4.87c-1.84,1.28-4,2.22-6.51,2.82c-2.5,0.6-5.22,0.9-8.14,0.9c-4.36,0-8.5-0.67-12.42-2
		c-3.91-1.33-7.47-3.28-10.66-5.84l3.43-5.96c0.85,0.89,1.96,1.78,3.31,2.67c1.36,0.89,2.9,1.69,4.63,2.4
		c1.73,0.71,3.59,1.28,5.59,1.72c2,0.45,4.08,0.67,6.27,0.67c4.05,0,7.19-0.7,9.42-2.12c2.24-1.41,3.36-3.53,3.36-6.36
		c0-1.57-0.36-2.89-1.08-3.96c-0.72-1.07-1.77-2-3.16-2.79c-1.38-0.79-3.1-1.48-5.15-2.08c-2.05-0.6-4.38-1.22-6.98-1.84
		c-2.88-0.68-5.41-1.41-7.59-2.2c-2.18-0.79-4-1.73-5.47-2.83c-1.46-1.1-2.57-2.43-3.32-4c-0.74-1.57-1.12-3.45-1.12-5.65
		c0-2.67,0.51-5.02,1.52-7.06c1.01-2.04,2.42-3.77,4.23-5.18c1.81-1.41,3.96-2.47,6.47-3.18c2.5-0.7,5.21-1.06,8.14-1.06
		c3.83,0,7.29,0.58,10.38,1.73c3.09,1.15,5.83,2.69,8.23,4.63L214.68,13.26z"/>
	<path d="M247.26,58.07c-3.14,0-6-0.58-8.58-1.73c-2.58-1.15-4.79-2.7-6.63-4.63c-1.84-1.94-3.26-4.18-4.27-6.75
		c-1.02-2.56-1.52-5.26-1.52-8.08c0-2.88,0.52-5.6,1.56-8.16c1.04-2.56,2.48-4.81,4.31-6.75c1.83-1.94,4.04-3.48,6.63-4.63
		c2.58-1.15,5.42-1.73,8.5-1.73c3.09,0,5.94,0.58,8.55,1.73c2.6,1.15,4.83,2.7,6.66,4.63c1.84,1.94,3.28,4.19,4.31,6.75
		c1.04,2.56,1.56,5.28,1.56,8.16c0,2.83-0.51,5.52-1.52,8.08c-1.01,2.56-2.45,4.81-4.31,6.75c-1.86,1.94-4.09,3.48-6.67,4.63
		C253.27,57.49,250.41,58.07,247.26,58.07 M233.45,36.96c0,2.15,0.36,4.13,1.07,5.96c0.72,1.83,1.71,3.43,2.96,4.79
		c1.25,1.36,2.71,2.43,4.39,3.21c1.68,0.79,3.47,1.18,5.39,1.18c1.92,0,3.71-0.39,5.39-1.18c1.68-0.78,3.16-1.87,4.43-3.26
		c1.28-1.38,2.28-3.01,3-4.86c0.72-1.86,1.07-3.86,1.07-6c0-2.09-0.35-4.07-1.07-5.93c-0.72-1.85-1.72-3.48-3-4.87
		c-1.27-1.38-2.75-2.47-4.43-3.25c-1.68-0.79-3.47-1.18-5.39-1.18c-1.92,0-3.71,0.4-5.39,1.22c-1.68,0.81-3.14,1.91-4.39,3.3
		c-1.25,1.38-2.24,3.01-2.96,4.87C233.81,32.82,233.45,34.81,233.45,36.96"/>
	<path d="M276.81,0h7.03v46.69c0,1.52,0.41,2.71,1.24,3.57c0.82,0.86,1.98,1.3,3.47,1.3c0.58,0,1.27-0.09,2.07-0.27
		c0.8-0.18,1.54-0.41,2.24-0.67l1.12,5.58c-1.17,0.47-2.56,0.86-4.15,1.18c-1.6,0.31-3.01,0.47-4.23,0.47
		c-2.72,0-4.86-0.76-6.43-2.28c-1.58-1.51-2.36-3.63-2.36-6.35V0z"/>
	<path d="M311.86,58.07c-4.36,0-7.66-1.44-9.9-4.32c-2.24-2.87-3.35-7.16-3.35-12.87V16.32h7.03v23.23c0,8.37,2.96,12.56,8.86,12.56
		c2.88,0,5.58-0.91,8.11-2.71c2.53-1.8,4.4-4.27,5.63-7.41V16.32h7.02v32.49c0,1.62,0.75,2.46,2.24,2.51v5.96
		c-0.59,0.11-1.11,0.18-1.56,0.23c-0.45,0.05-0.86,0.08-1.24,0.08c-1.6,0-2.85-0.38-3.75-1.14c-0.91-0.76-1.41-1.77-1.52-3.02
		l-0.24-4.94c-1.86,3.09-4.31,5.46-7.35,7.1C318.81,57.25,315.48,58.07,311.86,58.07"/>
	<path d="M368.64,55.24c-0.43,0.21-0.99,0.46-1.68,0.75c-0.69,0.29-1.48,0.58-2.35,0.86c-0.88,0.29-1.83,0.52-2.87,0.7
		c-1.04,0.18-2.12,0.28-3.24,0.28c-2.55,0-4.77-0.69-6.62-2.08c-1.87-1.38-2.8-3.54-2.8-6.48V21.74h-5.67v-5.42h5.67V2.67h7.03
		v13.65h9.34v5.42h-9.34v25.43c0.11,1.52,0.61,2.62,1.52,3.3c0.91,0.68,1.97,1.02,3.2,1.02c1.38,0,2.65-0.22,3.79-0.67
		c1.14-0.45,1.93-0.8,2.35-1.06L368.64,55.24z"/>
	<rect x="374.71" y="16.32" width="7.02" height="40.96"/>
	<path d="M411.12,58.07c-3.14,0-6-0.58-8.58-1.73c-2.58-1.15-4.79-2.7-6.63-4.63c-1.84-1.94-3.26-4.18-4.27-6.75
		c-1.02-2.56-1.52-5.26-1.52-8.08c0-2.88,0.52-5.6,1.56-8.16c1.04-2.56,2.48-4.81,4.31-6.75c1.83-1.94,4.04-3.48,6.63-4.63
		c2.58-1.15,5.42-1.73,8.5-1.73c3.09,0,5.94,0.58,8.55,1.73c2.61,1.15,4.83,2.7,6.67,4.63c1.83,1.94,3.28,4.19,4.31,6.75
		c1.04,2.56,1.56,5.28,1.56,8.16c0,2.83-0.51,5.52-1.52,8.08c-1.01,2.56-2.45,4.81-4.31,6.75c-1.86,1.94-4.09,3.48-6.67,4.63
		C417.13,57.49,414.27,58.07,411.12,58.07 M397.31,36.96c0,2.15,0.36,4.13,1.07,5.96c0.72,1.83,1.71,3.43,2.96,4.79
		c1.25,1.36,2.72,2.43,4.39,3.21c1.68,0.79,3.47,1.18,5.39,1.18c1.92,0,3.71-0.39,5.39-1.18c1.68-0.78,3.16-1.87,4.43-3.26
		c1.28-1.38,2.28-3.01,3-4.86c0.72-1.86,1.07-3.86,1.07-6c0-2.09-0.35-4.07-1.07-5.93c-0.72-1.85-1.72-3.48-3-4.87
		c-1.27-1.38-2.75-2.47-4.43-3.25c-1.68-0.79-3.47-1.18-5.39-1.18c-1.92,0-3.71,0.4-5.39,1.22c-1.67,0.81-3.14,1.91-4.39,3.3
		c-1.25,1.38-2.24,3.01-2.96,4.87C397.67,32.82,397.31,34.81,397.31,36.96"/>
	<path d="M476.69,57.28h-7.03V34.37c0-4.39-0.68-7.59-2.04-9.57c-1.36-1.99-3.42-2.98-6.18-2.98c-1.44,0-2.88,0.27-4.31,0.82
		c-1.44,0.55-2.8,1.29-4.08,2.24c-1.28,0.94-2.4,2.07-3.35,3.38c-0.96,1.31-1.68,2.74-2.16,4.31v24.72h-7.03V16.32h6.39v8.79
		c1.65-2.88,4.03-5.18,7.15-6.91c3.12-1.73,6.51-2.59,10.18-2.59c2.4,0,4.39,0.43,5.99,1.3c1.6,0.86,2.88,2.06,3.84,3.61
		c0.96,1.54,1.63,3.36,2.03,5.45c0.4,2.09,0.6,4.37,0.6,6.83V57.28z"/>
	<g>
		<defs>
			<path id="SVGID_1_" d="M10.63,1.98C4.62,2.12-0.14,7.02,0,12.93c0.14,5.91,5.13,10.58,11.13,10.44
				c6.01-0.13,10.77-5.04,10.63-10.94C21.63,6.61,16.78,1.98,10.88,1.98C10.8,1.98,10.71,1.98,10.63,1.98"/>
		</defs>
		<clipPath id="SVGID_00000176731542464332381090000013530426279501129655_">
			<use xlink:href="#SVGID_1_"  style="overflow:visible;"/>
		</clipPath>
	</g>
	<polygon class="st2" points="8.35,9.65 6,9.65 6,16.71 5.13,16.71 5.13,9.65 2.78,9.65 2.78,8.75 8.35,8.75 	"/>
	<path class="st2" d="M13.54,16.71h-0.85v-3.27c0-0.61-0.09-1.06-0.27-1.35c-0.18-0.29-0.44-0.44-0.79-0.44
		c-0.17,0-0.34,0.04-0.5,0.12c-0.17,0.08-0.32,0.18-0.47,0.32c-0.14,0.13-0.27,0.3-0.38,0.48c-0.11,0.19-0.2,0.39-0.26,0.62v3.53
		H9.19V8.53h0.84v3.58c0.2-0.43,0.47-0.76,0.81-1c0.34-0.24,0.71-0.36,1.12-0.36c0.3,0,0.54,0.07,0.75,0.19
		c0.21,0.13,0.37,0.3,0.49,0.51c0.12,0.22,0.21,0.48,0.27,0.78c0.05,0.3,0.08,0.63,0.08,0.97V16.71z"/>
	<path class="st2" d="M17.06,16.82c-0.38,0-0.72-0.08-1.04-0.24c-0.32-0.16-0.58-0.38-0.81-0.66c-0.23-0.28-0.4-0.6-0.53-0.97
		c-0.12-0.37-0.19-0.76-0.19-1.17c0-0.41,0.06-0.8,0.19-1.16c0.13-0.37,0.3-0.69,0.53-0.96c0.23-0.28,0.5-0.49,0.81-0.66
		c0.32-0.16,0.66-0.24,1.04-0.24c0.38,0,0.72,0.08,1.03,0.24c0.31,0.17,0.57,0.38,0.79,0.66c0.22,0.27,0.39,0.59,0.5,0.95
		c0.12,0.36,0.18,0.74,0.18,1.13c0,0.08,0,0.16,0,0.22c0,0.07-0.01,0.12-0.01,0.16h-4.16c0.02,0.29,0.08,0.56,0.17,0.8
		c0.1,0.24,0.22,0.45,0.37,0.62c0.15,0.17,0.33,0.31,0.53,0.4c0.19,0.1,0.4,0.15,0.62,0.15c0.15,0,0.3-0.02,0.45-0.07
		c0.15-0.05,0.28-0.11,0.41-0.2c0.13-0.08,0.24-0.18,0.34-0.3c0.1-0.12,0.17-0.25,0.23-0.4l0.73,0.24c-0.08,0.22-0.2,0.41-0.34,0.59
		c-0.14,0.18-0.31,0.34-0.5,0.46c-0.19,0.13-0.4,0.23-0.63,0.31C17.55,16.78,17.3,16.82,17.06,16.82 M18.78,13.39
		c-0.02-0.28-0.08-0.53-0.18-0.77c-0.1-0.24-0.22-0.44-0.37-0.6c-0.15-0.16-0.33-0.29-0.52-0.39c-0.2-0.09-0.41-0.14-0.63-0.14
		s-0.44,0.05-0.63,0.14c-0.2,0.09-0.37,0.23-0.53,0.39c-0.15,0.17-0.27,0.37-0.36,0.6c-0.09,0.23-0.15,0.49-0.17,0.76H18.78z"/>
	<g>
		<defs>
			<path id="SVGID_00000109709476034868918610000014976265661610905754_" d="M373.53,7.29c0,2.55,2.1,4.62,4.7,4.62
				c2.6,0,4.7-2.07,4.7-4.62c0-2.55-2.11-4.62-4.7-4.62C375.63,2.67,373.53,4.74,373.53,7.29"/>
		</defs>
		<clipPath id="SVGID_00000036224542650640918230000013015318885813702845_">
			<use xlink:href="#SVGID_00000109709476034868918610000014976265661610905754_"  style="overflow:visible;"/>
		</clipPath>
	</g>
	<g>
		<defs>
			<path id="SVGID_00000135678783219498677960000007541994404902771594_" d="M485.62,45.68c-3.26,0.07-5.84,2.73-5.77,5.94
				c0.08,3.2,2.78,5.74,6.05,5.67c3.26-0.08,5.84-2.74,5.77-5.94c-0.08-3.16-2.71-5.67-5.91-5.67
				C485.72,45.67,485.67,45.68,485.62,45.68"/>
		</defs>
		<clipPath id="SVGID_00000004548315073764102470000003035209235421866161_">
			<use xlink:href="#SVGID_00000135678783219498677960000007541994404902771594_"  style="overflow:visible;"/>
		</clipPath>
	</g>
	<g>
		<path d="M10.04,76.81l1.31,5.07c0.29,1.11,0.55,2.14,0.74,3.17h0.06c0.22-1.01,0.55-2.08,0.88-3.15l1.61-5.09h1.51l1.53,4.99
			c0.37,1.19,0.65,2.25,0.88,3.25h0.06c0.16-1.01,0.43-2.06,0.75-3.23l1.41-5.01h1.78l-3.18,9.97h-1.63l-1.51-4.76
			c-0.35-1.11-0.63-2.1-0.88-3.28H15.3c-0.24,1.2-0.55,2.23-0.9,3.3l-1.59,4.74h-1.63L8.2,76.81H10.04z"/>
		<path d="M25.36,82.13c0.04,2.45,1.59,3.46,3.39,3.46c1.29,0,2.06-0.23,2.74-0.52l0.31,1.3c-0.63,0.29-1.72,0.62-3.29,0.62
			c-3.04,0-4.86-2.02-4.86-5.03s1.76-5.38,4.63-5.38c3.23,0,4.08,2.86,4.08,4.7c0,0.37-0.04,0.66-0.06,0.85H25.36z M30.63,80.83
			c0.02-1.15-0.47-2.95-2.49-2.95c-1.82,0-2.61,1.69-2.76,2.95H30.63z"/>
		<path d="M44.39,86.78l-0.14-1.26h-0.06c-0.55,0.78-1.61,1.48-3.02,1.48c-2,0-3.02-1.42-3.02-2.86c0-2.41,2.12-3.73,5.94-3.71
			v-0.21c0-0.82-0.22-2.31-2.25-2.31c-0.92,0-1.88,0.29-2.57,0.74l-0.41-1.2c0.82-0.54,2-0.88,3.25-0.88c3.02,0,3.76,2.08,3.76,4.08
			v3.73c0,0.87,0.04,1.71,0.16,2.39H44.39z M44.13,81.69c-1.96-0.04-4.19,0.31-4.19,2.25c0,1.17,0.78,1.73,1.7,1.73
			c1.29,0,2.1-0.82,2.39-1.67c0.06-0.19,0.1-0.39,0.1-0.58V81.69z"/>
		<path d="M48.77,79.92c0-1.18-0.02-2.18-0.08-3.11h1.57l0.06,1.96h0.08c0.45-1.34,1.53-2.18,2.74-2.18c0.2,0,0.35,0.02,0.51,0.06
			v1.71c-0.18-0.04-0.37-0.06-0.61-0.06c-1.27,0-2.16,0.97-2.41,2.33c-0.04,0.25-0.08,0.54-0.08,0.85v5.32h-1.78V79.92z"/>
		<path d="M56.45,82.13c0.04,2.45,1.59,3.46,3.39,3.46c1.29,0,2.06-0.23,2.74-0.52l0.31,1.3c-0.63,0.29-1.72,0.62-3.29,0.62
			c-3.04,0-4.86-2.02-4.86-5.03s1.76-5.38,4.63-5.38c3.23,0,4.08,2.86,4.08,4.7c0,0.37-0.04,0.66-0.06,0.85H56.45z M61.72,80.83
			c0.02-1.15-0.47-2.95-2.49-2.95c-1.82,0-2.61,1.69-2.76,2.95H61.72z"/>
		<path d="M72.18,73.95v2.86h2.57v1.38h-2.57v5.38c0,1.24,0.35,1.94,1.35,1.94c0.47,0,0.82-0.06,1.04-0.12l0.08,1.36
			c-0.35,0.14-0.9,0.25-1.59,0.25c-0.84,0-1.51-0.27-1.94-0.76c-0.51-0.54-0.69-1.42-0.69-2.6v-5.44h-1.53v-1.38h1.53v-2.39
			L72.18,73.95z"/>
		<path d="M76.77,72.15h1.8v6.22h0.04c0.29-0.52,0.74-0.97,1.29-1.28c0.53-0.31,1.16-0.51,1.84-0.51c1.33,0,3.45,0.82,3.45,4.26
			v5.93h-1.8v-5.73c0-1.61-0.59-2.97-2.29-2.97c-1.16,0-2.08,0.82-2.41,1.81c-0.1,0.25-0.12,0.52-0.12,0.86v6.02h-1.8V72.15z"/>
		<path d="M89.11,82.13c0.04,2.45,1.59,3.46,3.39,3.46c1.29,0,2.06-0.23,2.74-0.52l0.31,1.3c-0.63,0.29-1.72,0.62-3.29,0.62
			c-3.04,0-4.86-2.02-4.86-5.03s1.76-5.38,4.63-5.38c3.23,0,4.08,2.86,4.08,4.7c0,0.37-0.04,0.66-0.06,0.85H89.11z M94.38,80.83
			c0.02-1.15-0.47-2.95-2.49-2.95c-1.82,0-2.61,1.69-2.76,2.95H94.38z"/>
		<path d="M102.43,84.93c0.53,0.35,1.47,0.72,2.37,0.72c1.31,0,1.92-0.66,1.92-1.48c0-0.87-0.51-1.34-1.84-1.83
			c-1.78-0.64-2.61-1.63-2.61-2.82c0-1.61,1.29-2.92,3.41-2.92c1,0,1.88,0.29,2.43,0.62l-0.45,1.32c-0.39-0.25-1.1-0.58-2.02-0.58
			c-1.06,0-1.65,0.62-1.65,1.36c0,0.82,0.59,1.19,1.88,1.69c1.72,0.66,2.59,1.53,2.59,3.01c0,1.75-1.35,2.99-3.7,2.99
			c-1.08,0-2.08-0.27-2.78-0.68L102.43,84.93z"/>
		<path d="M119.71,81.71c0,3.69-2.53,5.3-4.92,5.3c-2.68,0-4.74-1.98-4.74-5.13c0-3.34,2.16-5.29,4.9-5.29
			C117.79,76.58,119.71,78.66,119.71,81.71z M111.87,81.82c0,2.19,1.25,3.83,3,3.83c1.72,0,3-1.63,3-3.88
			c0-1.69-0.84-3.83-2.96-3.83S111.87,79.92,111.87,81.82z"/>
		<path d="M121.98,72.15h1.8v14.63h-1.8V72.15z"/>
		<path d="M135.07,84.06c0,1.03,0.02,1.94,0.08,2.72h-1.59l-0.1-1.63h-0.04c-0.47,0.8-1.51,1.85-3.27,1.85
			c-1.55,0-3.41-0.86-3.41-4.37v-5.83h1.8v5.52c0,1.9,0.57,3.17,2.21,3.17c1.21,0,2.04-0.84,2.37-1.65c0.1-0.27,0.16-0.6,0.16-0.93
			v-6.12h1.8V84.06z"/>
		<path d="M140.2,73.95v2.86h2.57v1.38h-2.57v5.38c0,1.24,0.35,1.94,1.35,1.94c0.47,0,0.82-0.06,1.04-0.12l0.08,1.36
			c-0.35,0.14-0.9,0.25-1.59,0.25c-0.84,0-1.51-0.27-1.94-0.76c-0.51-0.54-0.69-1.42-0.69-2.6v-5.44h-1.53v-1.38h1.53v-2.39
			L140.2,73.95z"/>
		<path d="M146.8,74.01c0.02,0.62-0.43,1.11-1.14,1.11c-0.63,0-1.08-0.49-1.08-1.11c0-0.64,0.47-1.13,1.12-1.13
			C146.37,72.87,146.8,73.37,146.8,74.01z M144.8,86.78v-9.97h1.8v9.97H144.8z"/>
		<path d="M158.52,81.71c0,3.69-2.53,5.3-4.92,5.3c-2.68,0-4.74-1.98-4.74-5.13c0-3.34,2.16-5.29,4.9-5.29
			C156.6,76.58,158.52,78.66,158.52,81.71z M150.68,81.82c0,2.19,1.25,3.83,3,3.83c1.72,0,3-1.63,3-3.88c0-1.69-0.84-3.83-2.96-3.83
			S150.68,79.92,150.68,81.82z"/>
		<path d="M160.79,79.51c0-1.03-0.02-1.87-0.08-2.7h1.59l0.1,1.65h0.04c0.49-0.95,1.63-1.87,3.27-1.87c1.37,0,3.49,0.82,3.49,4.24
			v5.96h-1.8v-5.75c0-1.61-0.59-2.95-2.29-2.95c-1.18,0-2.1,0.85-2.41,1.86c-0.08,0.22-0.12,0.54-0.12,0.84v6h-1.8V79.51z"/>
		<path d="M176.65,86.78v-8.59h-1.39v-1.38h1.39v-0.47c0-1.4,0.31-2.68,1.14-3.48c0.68-0.66,1.57-0.93,2.41-0.93
			c0.63,0,1.18,0.15,1.53,0.29l-0.25,1.4c-0.27-0.12-0.63-0.23-1.14-0.23c-1.53,0-1.92,1.36-1.92,2.88v0.54h2.39v1.38h-2.39v8.59
			H176.65z"/>
		<path d="M191.27,81.71c0,3.69-2.53,5.3-4.92,5.3c-2.68,0-4.74-1.98-4.74-5.13c0-3.34,2.16-5.29,4.9-5.29
			C189.35,76.58,191.27,78.66,191.27,81.71z M183.43,81.82c0,2.19,1.25,3.83,3,3.83c1.72,0,3-1.63,3-3.88
			c0-1.69-0.84-3.83-2.96-3.83S183.43,79.92,183.43,81.82z"/>
		<path d="M193.54,79.92c0-1.18-0.02-2.18-0.08-3.11h1.57l0.06,1.96h0.08c0.45-1.34,1.53-2.18,2.74-2.18c0.2,0,0.35,0.02,0.51,0.06
			v1.71c-0.18-0.04-0.37-0.06-0.61-0.06c-1.27,0-2.16,0.97-2.41,2.33c-0.04,0.25-0.08,0.54-0.08,0.85v5.32h-1.78V79.92z"/>
		<path d="M209.59,86.78l-0.14-1.26h-0.06c-0.55,0.78-1.61,1.48-3.02,1.48c-2,0-3.02-1.42-3.02-2.86c0-2.41,2.12-3.73,5.94-3.71
			v-0.21c0-0.82-0.22-2.31-2.25-2.31c-0.92,0-1.88,0.29-2.57,0.74l-0.41-1.2c0.82-0.54,2-0.88,3.25-0.88c3.02,0,3.76,2.08,3.76,4.08
			v3.73c0,0.87,0.04,1.71,0.16,2.39H209.59z M209.33,81.69c-1.96-0.04-4.19,0.31-4.19,2.25c0,1.17,0.78,1.73,1.7,1.73
			c1.29,0,2.1-0.82,2.39-1.67c0.06-0.19,0.1-0.39,0.1-0.58V81.69z"/>
		<path d="M213.97,72.15h1.8v14.63h-1.8V72.15z"/>
		<path d="M218.79,72.15h1.8v14.63h-1.8V72.15z"/>
		<path d="M227.53,76.81l2.16,5.89c0.22,0.66,0.47,1.44,0.63,2.04h0.04c0.18-0.6,0.39-1.36,0.63-2.08l1.96-5.85h1.9l-2.69,7.11
			c-1.29,3.42-2.16,5.17-3.39,6.25c-0.88,0.78-1.76,1.09-2.21,1.17l-0.45-1.52c0.45-0.15,1.04-0.43,1.57-0.89
			c0.49-0.39,1.1-1.09,1.51-2.02c0.08-0.19,0.14-0.33,0.14-0.43c0-0.11-0.04-0.25-0.12-0.48l-3.66-9.19H227.53z"/>
		<path d="M245.05,81.71c0,3.69-2.53,5.3-4.92,5.3c-2.68,0-4.74-1.98-4.74-5.13c0-3.34,2.16-5.29,4.9-5.29
			C243.13,76.58,245.05,78.66,245.05,81.71z M237.21,81.82c0,2.19,1.25,3.83,3,3.83c1.72,0,3-1.63,3-3.88
			c0-1.69-0.84-3.83-2.96-3.83S237.21,79.92,237.21,81.82z"/>
		<path d="M255.59,84.06c0,1.03,0.02,1.94,0.08,2.72h-1.59l-0.1-1.63h-0.04c-0.47,0.8-1.51,1.85-3.27,1.85
			c-1.55,0-3.41-0.86-3.41-4.37v-5.83h1.8v5.52c0,1.9,0.57,3.17,2.21,3.17c1.21,0,2.04-0.84,2.37-1.65c0.1-0.27,0.16-0.6,0.16-0.93
			v-6.12h1.8V84.06z"/>
		<path d="M258.58,79.92c0-1.18-0.02-2.18-0.08-3.11h1.57l0.06,1.96h0.08c0.45-1.34,1.53-2.18,2.74-2.18c0.2,0,0.35,0.02,0.51,0.06
			v1.71c-0.18-0.04-0.37-0.06-0.61-0.06c-1.27,0-2.16,0.97-2.41,2.33c-0.04,0.25-0.08,0.54-0.08,0.85v5.32h-1.78V79.92z"/>
		<path d="M269.08,86.78c0.04-0.68,0.08-1.69,0.08-2.58V72.15h1.78v6.26h0.04c0.63-1.11,1.78-1.83,3.37-1.83
			c2.45,0,4.19,2.06,4.16,5.09c0,3.56-2.22,5.34-4.43,5.34c-1.43,0-2.57-0.56-3.31-1.88h-0.06l-0.08,1.65H269.08z M270.94,82.79
			c0,0.23,0.04,0.45,0.08,0.66c0.35,1.26,1.39,2.12,2.69,2.12c1.88,0,3-1.55,3-3.83c0-2-1.02-3.71-2.94-3.71
			c-1.23,0-2.37,0.85-2.74,2.23c-0.04,0.21-0.1,0.45-0.1,0.74V82.79z"/>
		<path d="M289.05,84.06c0,1.03,0.02,1.94,0.08,2.72h-1.59l-0.1-1.63h-0.04c-0.47,0.8-1.51,1.85-3.27,1.85
			c-1.55,0-3.41-0.86-3.41-4.37v-5.83h1.8v5.52c0,1.9,0.57,3.17,2.21,3.17c1.21,0,2.04-0.84,2.37-1.65c0.1-0.27,0.16-0.6,0.16-0.93
			v-6.12h1.8V84.06z"/>
		<path d="M291.79,84.93c0.53,0.35,1.47,0.72,2.37,0.72c1.31,0,1.92-0.66,1.92-1.48c0-0.87-0.51-1.34-1.84-1.83
			c-1.78-0.64-2.61-1.63-2.61-2.82c0-1.61,1.29-2.92,3.41-2.92c1,0,1.88,0.29,2.43,0.62l-0.45,1.32c-0.39-0.25-1.1-0.58-2.02-0.58
			c-1.06,0-1.65,0.62-1.65,1.36c0,0.82,0.59,1.19,1.88,1.69c1.72,0.66,2.59,1.53,2.59,3.01c0,1.75-1.35,2.99-3.7,2.99
			c-1.08,0-2.08-0.27-2.78-0.68L291.79,84.93z"/>
		<path d="M302.13,74.01c0.02,0.62-0.43,1.11-1.14,1.11c-0.63,0-1.08-0.49-1.08-1.11c0-0.64,0.47-1.13,1.12-1.13
			C301.7,72.87,302.13,73.37,302.13,74.01z M300.13,86.78v-9.97h1.8v9.97H300.13z"/>
		<path d="M304.91,79.51c0-1.03-0.02-1.87-0.08-2.7h1.59l0.1,1.65h0.04c0.49-0.95,1.63-1.87,3.27-1.87c1.37,0,3.49,0.82,3.49,4.24
			v5.96h-1.8v-5.75c0-1.61-0.59-2.95-2.29-2.95c-1.18,0-2.1,0.85-2.41,1.86c-0.08,0.22-0.12,0.54-0.12,0.84v6h-1.8V79.51z"/>
		<path d="M317.25,82.13c0.04,2.45,1.59,3.46,3.39,3.46c1.29,0,2.06-0.23,2.74-0.52l0.31,1.3c-0.63,0.29-1.72,0.62-3.29,0.62
			c-3.04,0-4.86-2.02-4.86-5.03s1.76-5.38,4.63-5.38c3.23,0,4.08,2.86,4.08,4.7c0,0.37-0.04,0.66-0.06,0.85H317.25z M322.52,80.83
			c0.02-1.15-0.47-2.95-2.49-2.95c-1.82,0-2.61,1.69-2.76,2.95H322.52z"/>
		<path d="M326.23,84.93c0.53,0.35,1.47,0.72,2.37,0.72c1.31,0,1.92-0.66,1.92-1.48c0-0.87-0.51-1.34-1.84-1.83
			c-1.78-0.64-2.61-1.63-2.61-2.82c0-1.61,1.29-2.92,3.41-2.92c1,0,1.88,0.29,2.43,0.62l-0.45,1.32c-0.39-0.25-1.1-0.58-2.02-0.58
			c-1.06,0-1.65,0.62-1.65,1.36c0,0.82,0.59,1.19,1.88,1.69c1.72,0.66,2.59,1.53,2.59,3.01c0,1.75-1.35,2.99-3.7,2.99
			c-1.08,0-2.08-0.27-2.78-0.68L326.23,84.93z"/>
		<path d="M334.32,84.93c0.53,0.35,1.47,0.72,2.37,0.72c1.31,0,1.92-0.66,1.92-1.48c0-0.87-0.51-1.34-1.84-1.83
			c-1.78-0.64-2.61-1.63-2.61-2.82c0-1.61,1.29-2.92,3.41-2.92c1,0,1.88,0.29,2.43,0.62l-0.45,1.32c-0.39-0.25-1.1-0.58-2.02-0.58
			c-1.06,0-1.65,0.62-1.65,1.36c0,0.82,0.59,1.19,1.88,1.69c1.72,0.66,2.59,1.53,2.59,3.01c0,1.75-1.35,2.99-3.7,2.99
			c-1.08,0-2.08-0.27-2.78-0.68L334.32,84.93z"/>
		<path d="M346.99,79.92c0-1.18-0.02-2.18-0.08-3.11h1.57l0.06,1.96h0.08c0.45-1.34,1.53-2.18,2.74-2.18c0.2,0,0.35,0.02,0.51,0.06
			v1.71c-0.18-0.04-0.37-0.06-0.61-0.06c-1.27,0-2.16,0.97-2.41,2.33c-0.04,0.25-0.08,0.54-0.08,0.85v5.32h-1.78V79.92z"/>
		<path d="M354.67,82.13c0.04,2.45,1.59,3.46,3.39,3.46c1.29,0,2.06-0.23,2.74-0.52l0.31,1.3c-0.63,0.29-1.72,0.62-3.29,0.62
			c-3.04,0-4.86-2.02-4.86-5.03s1.76-5.38,4.63-5.38c3.23,0,4.08,2.86,4.08,4.7c0,0.37-0.04,0.66-0.06,0.85H354.67z M359.94,80.83
			c0.02-1.15-0.47-2.95-2.49-2.95c-1.82,0-2.61,1.69-2.76,2.95H359.94z"/>
		<path d="M363.9,72.15h1.8v14.63h-1.8V72.15z"/>
		<path d="M374.19,86.78l-0.14-1.26h-0.06c-0.55,0.78-1.61,1.48-3.02,1.48c-2,0-3.02-1.42-3.02-2.86c0-2.41,2.12-3.73,5.94-3.71
			v-0.21c0-0.82-0.22-2.31-2.25-2.31c-0.92,0-1.88,0.29-2.57,0.74l-0.41-1.2c0.82-0.54,2-0.88,3.25-0.88c3.02,0,3.76,2.08,3.76,4.08
			v3.73c0,0.87,0.04,1.71,0.16,2.39H374.19z M373.93,81.69c-1.96-0.04-4.19,0.31-4.19,2.25c0,1.17,0.78,1.73,1.7,1.73
			c1.29,0,2.1-0.82,2.39-1.67c0.06-0.19,0.1-0.39,0.1-0.58V81.69z"/>
		<path d="M380.57,73.95v2.86h2.57v1.38h-2.57v5.38c0,1.24,0.35,1.94,1.35,1.94c0.47,0,0.82-0.06,1.04-0.12l0.08,1.36
			c-0.35,0.14-0.9,0.25-1.59,0.25c-0.84,0-1.51-0.27-1.94-0.76c-0.51-0.54-0.69-1.42-0.69-2.6v-5.44h-1.53v-1.38h1.53v-2.39
			L380.57,73.95z"/>
		<path d="M386.17,82.13c0.04,2.45,1.59,3.46,3.39,3.46c1.29,0,2.06-0.23,2.74-0.52l0.31,1.3c-0.63,0.29-1.72,0.62-3.29,0.62
			c-3.04,0-4.86-2.02-4.86-5.03s1.76-5.38,4.63-5.38c3.23,0,4.08,2.86,4.08,4.7c0,0.37-0.04,0.66-0.06,0.85H386.17z M391.44,80.83
			c0.02-1.15-0.47-2.95-2.49-2.95c-1.82,0-2.61,1.69-2.76,2.95H391.44z"/>
		<path d="M403.94,72.15v12.06c0,0.89,0.02,1.89,0.08,2.58h-1.61l-0.08-1.73h-0.04c-0.55,1.11-1.76,1.96-3.37,1.96
			c-2.39,0-4.23-2.04-4.23-5.07c-0.02-3.32,2.02-5.36,4.43-5.36c1.51,0,2.53,0.72,2.98,1.52h0.04v-5.96H403.94z M402.14,80.87
			c0-0.23-0.02-0.54-0.08-0.76c-0.27-1.15-1.24-2.1-2.59-2.1c-1.86,0-2.96,1.65-2.96,3.85c0,2.02,0.98,3.69,2.92,3.69
			c1.2,0,2.31-0.81,2.63-2.16c0.06-0.25,0.08-0.49,0.08-0.78V80.87z"/>
		<path d="M411.25,80.06c0-1.28-0.04-2.31-0.08-3.26h1.61l0.08,1.71h0.04c0.74-1.21,1.9-1.94,3.51-1.94c2.39,0,4.19,2.04,4.19,5.07
			c0,3.59-2.16,5.36-4.49,5.36c-1.31,0-2.45-0.58-3.04-1.57h-0.04v5.42h-1.78V80.06z M413.03,82.72c0,0.27,0.04,0.52,0.08,0.74
			c0.32,1.26,1.41,2.12,2.69,2.12c1.9,0,3-1.57,3-3.85c0-2-1.04-3.71-2.94-3.71c-1.23,0-2.37,0.89-2.72,2.25
			c-0.06,0.22-0.12,0.49-0.12,0.74V82.72z"/>
		<path d="M422.88,79.92c0-1.18-0.02-2.18-0.08-3.11h1.57l0.06,1.96h0.08c0.45-1.34,1.53-2.18,2.74-2.18c0.2,0,0.35,0.02,0.51,0.06
			v1.71c-0.18-0.04-0.37-0.06-0.61-0.06c-1.27,0-2.16,0.97-2.41,2.33c-0.04,0.25-0.08,0.54-0.08,0.85v5.32h-1.78V79.92z"/>
		<path d="M438.07,81.71c0,3.69-2.53,5.3-4.92,5.3c-2.68,0-4.74-1.98-4.74-5.13c0-3.34,2.16-5.29,4.9-5.29
			C436.15,76.58,438.07,78.66,438.07,81.71z M430.23,81.82c0,2.19,1.25,3.83,3,3.83c1.72,0,3-1.63,3-3.88
			c0-1.69-0.84-3.83-2.96-3.83S430.23,79.92,430.23,81.82z"/>
		<path d="M440.26,86.78c0.04-0.68,0.08-1.69,0.08-2.58V72.15h1.78v6.26h0.04c0.63-1.11,1.78-1.83,3.37-1.83
			c2.45,0,4.19,2.06,4.16,5.09c0,3.56-2.22,5.34-4.43,5.34c-1.43,0-2.57-0.56-3.31-1.88h-0.06l-0.08,1.65H440.26z M442.12,82.79
			c0,0.23,0.04,0.45,0.08,0.66c0.35,1.26,1.39,2.12,2.69,2.12c1.88,0,3-1.55,3-3.83c0-2-1.02-3.71-2.94-3.71
			c-1.23,0-2.37,0.85-2.74,2.23c-0.04,0.21-0.1,0.45-0.1,0.74V82.79z"/>
		<path d="M451.97,72.15h1.8v14.63h-1.8V72.15z"/>
		<path d="M457.79,82.13c0.04,2.45,1.59,3.46,3.39,3.46c1.29,0,2.06-0.23,2.74-0.52l0.31,1.3c-0.63,0.29-1.72,0.62-3.29,0.62
			c-3.04,0-4.86-2.02-4.86-5.03s1.76-5.38,4.63-5.38c3.23,0,4.08,2.86,4.08,4.7c0,0.37-0.04,0.66-0.06,0.85H457.79z M463.06,80.83
			c0.02-1.15-0.47-2.95-2.49-2.95c-1.82,0-2.61,1.69-2.76,2.95H463.06z"/>
		<path d="M467.02,79.51c0-1.03-0.02-1.87-0.08-2.7h1.57l0.08,1.61h0.06c0.55-0.95,1.47-1.83,3.1-1.83c1.35,0,2.37,0.82,2.8,2h0.04
			c0.31-0.56,0.69-0.99,1.1-1.3c0.59-0.45,1.25-0.7,2.19-0.7c1.31,0,3.25,0.86,3.25,4.33v5.87h-1.76v-5.65
			c0-1.92-0.7-3.07-2.15-3.07c-1.02,0-1.82,0.76-2.12,1.65c-0.08,0.25-0.14,0.58-0.14,0.91v6.16h-1.76v-5.98
			c0-1.59-0.7-2.74-2.06-2.74c-1.12,0-1.94,0.91-2.22,1.81c-0.1,0.27-0.14,0.58-0.14,0.88v6.02h-1.76V79.51z"/>
		<path d="M483.81,84.93c0.53,0.35,1.47,0.72,2.37,0.72c1.31,0,1.92-0.66,1.92-1.48c0-0.87-0.51-1.34-1.84-1.83
			c-1.78-0.64-2.61-1.63-2.61-2.82c0-1.61,1.29-2.92,3.41-2.92c1,0,1.88,0.29,2.43,0.62l-0.45,1.32c-0.39-0.25-1.1-0.58-2.02-0.58
			c-1.06,0-1.65,0.62-1.65,1.36c0,0.82,0.59,1.19,1.88,1.69c1.72,0.66,2.59,1.53,2.59,3.01c0,1.75-1.35,2.99-3.7,2.99
			c-1.08,0-2.08-0.27-2.78-0.68L483.81,84.93z"/>
	</g>
</g>
</svg>
